# xmcd
#
# Track frame offsets:
#	150
#	16787
#	34283
#	50801
#	68384
#	79516
#	95787
#	112979
#	130994
#	145122
#	161351
#	185246
#
# Disc length: 2540 seconds
#
# Revision: 1
# Processed by: cddbd v1.5.2PL0 Copyright (c) Steve Scherf et al.
# Submitted via: EasyCDDAExtractor 16.0.5.1
#
DISCID=9d09ea0c
DTITLE=Remi Nicole - Cupid Shoot Me
DYEAR=2009
DGENRE=Oldies
TTITLE0=Cupid Shoot Me
TTITLE1=In My Dreams
TTITLE2=Nice Boy
TTITLE3=Loveless
TTITLE4=Another Day
TTITLE5=Broke Hearted People
TTITLE6=Standing Tears Apart
TTITLE7=Come Find Me
TTITLE8=Going It Alone
TTITLE9=I'll Be Waiting
TTITLE10=Love Me So
TTITLE11=DATA TRACK
EXTD=
EXTT0=
EXTT1=
EXTT2=
EXTT3=
EXTT4=
EXTT5=
EXTT6=
EXTT7=
EXTT8=
EXTT9=
EXTT10=
EXTT11=
PLAYORDER=
